<svg width="18" height="12" viewBox="0 0 18 12" fill="none" xmlns="http://www.w3.org/2000/svg">
<path d="M14.25 12H3.75C2.7558 11.9988 1.80267 11.6033 1.09966 10.9003C0.396661 10.1973 0.00119089 9.2442 0 8.25L0 3.75C0.00119089 2.7558 0.396661 1.80267 1.09966 1.09966C1.80267 0.396661 2.7558 0.00119089 3.75 0H14.25C15.2442 0.00119089 16.1973 0.396661 16.9003 1.09966C17.6033 1.80267 17.9988 2.7558 18 3.75V8.25C17.9988 9.2442 17.6033 10.1973 16.9003 10.9003C16.1973 11.6033 15.2442 11.9988 14.25 12ZM3.75 1.5C3.15326 1.5 2.58097 1.73705 2.15901 2.15901C1.73705 2.58097 1.5 3.15326 1.5 3.75V8.25C1.5 8.84674 1.73705 9.41903 2.15901 9.84099C2.58097 10.2629 3.15326 10.5 3.75 10.5H14.25C14.8467 10.5 15.419 10.2629 15.841 9.84099C16.2629 9.41903 16.5 8.84674 16.5 8.25V3.75C16.5 3.15326 16.2629 2.58097 15.841 2.15901C15.419 1.73705 14.8467 1.5 14.25 1.5H3.75ZM9 9C8.40666 9 7.82664 8.82405 7.33329 8.49441C6.83994 8.16476 6.45542 7.69623 6.22836 7.14805C6.0013 6.59987 5.94189 5.99667 6.05764 5.41473C6.1734 4.83279 6.45912 4.29824 6.87868 3.87868C7.29824 3.45912 7.83279 3.1734 8.41473 3.05764C8.99667 2.94189 9.59987 3.0013 10.1481 3.22836C10.6962 3.45542 11.1648 3.83994 11.4944 4.33329C11.8241 4.82664 12 5.40666 12 6C12 6.79565 11.6839 7.55871 11.1213 8.12132C10.5587 8.68393 9.79565 9 9 9ZM9 4.5C8.70333 4.5 8.41332 4.58797 8.16665 4.7528C7.91997 4.91762 7.72771 5.15189 7.61418 5.42597C7.50065 5.70006 7.47094 6.00166 7.52882 6.29264C7.5867 6.58361 7.72956 6.85088 7.93934 7.06066C8.14912 7.27044 8.41639 7.4133 8.70737 7.47118C8.99834 7.52906 9.29994 7.49935 9.57403 7.38582C9.84811 7.27229 10.0824 7.08003 10.2472 6.83335C10.412 6.58668 10.5 6.29667 10.5 6C10.5 5.60218 10.342 5.22064 10.0607 4.93934C9.77936 4.65804 9.39782 4.5 9 4.5ZM3.75 3C3.60166 3 3.45666 3.04399 3.33332 3.1264C3.20999 3.20881 3.11386 3.32594 3.05709 3.46299C3.00032 3.60003 2.98547 3.75083 3.01441 3.89632C3.04335 4.0418 3.11478 4.17544 3.21967 4.28033C3.32456 4.38522 3.4582 4.45665 3.60368 4.48559C3.74917 4.51453 3.89997 4.49968 4.03701 4.44291C4.17406 4.38614 4.29119 4.29001 4.3736 4.16668C4.45601 4.04334 4.5 3.89834 4.5 3.75C4.5 3.55109 4.42098 3.36032 4.28033 3.21967C4.13968 3.07902 3.94891 3 3.75 3ZM13.5 3.75C13.5 3.89834 13.544 4.04334 13.6264 4.16668C13.7088 4.29001 13.8259 4.38614 13.963 4.44291C14.1 4.49968 14.2508 4.51453 14.3963 4.48559C14.5418 4.45665 14.6754 4.38522 14.7803 4.28033C14.8852 4.17544 14.9566 4.0418 14.9856 3.89632C15.0145 3.75083 14.9997 3.60003 14.9429 3.46299C14.8861 3.32594 14.79 3.20881 14.6667 3.1264C14.5433 3.04399 14.3983 3 14.25 3C14.0511 3 13.8603 3.07902 13.7197 3.21967C13.579 3.36032 13.5 3.55109 13.5 3.75ZM3.75 7.5C3.60166 7.5 3.45666 7.54399 3.33332 7.6264C3.20999 7.70881 3.11386 7.82594 3.05709 7.96299C3.00032 8.10003 2.98547 8.25083 3.01441 8.39632C3.04335 8.5418 3.11478 8.67544 3.21967 8.78033C3.32456 8.88522 3.4582 8.95665 3.60368 8.98559C3.74917 9.01453 3.89997 8.99968 4.03701 8.94291C4.17406 8.88614 4.29119 8.79002 4.3736 8.66668C4.45601 8.54334 4.5 8.39834 4.5 8.25C4.5 8.05109 4.42098 7.86032 4.28033 7.71967C4.13968 7.57902 3.94891 7.5 3.75 7.5ZM13.5 8.25C13.5 8.39834 13.544 8.54334 13.6264 8.66668C13.7088 8.79002 13.8259 8.88614 13.963 8.94291C14.1 8.99968 14.2508 9.01453 14.3963 8.98559C14.5418 8.95665 14.6754 8.88522 14.7803 8.78033C14.8852 8.67544 14.9566 8.5418 14.9856 8.39632C15.0145 8.25083 14.9997 8.10003 14.9429 7.96299C14.8861 7.82594 14.79 7.70881 14.6667 7.6264C14.5433 7.54399 14.3983 7.5 14.25 7.5C14.0511 7.5 13.8603 7.57902 13.7197 7.71967C13.579 7.86032 13.5 8.05109 13.5 8.25Z" fill="#A3ABB5"/>
</svg>
