<svg width="66" height="66" viewBox="0 0 66 66" fill="none" xmlns="http://www.w3.org/2000/svg">
<g clipPath="url(#clip0)">
<path d="M33 24C31.22 24 29.4799 24.5278 27.9999 25.5168C26.5198 26.5057 25.3663 27.9113 24.6851 29.5558C24.0039 31.2004 23.8257 33.01 24.1729 34.7558C24.5202 36.5016 25.3774 38.1053 26.636 39.364C27.8947 40.6226 29.4984 41.4798 31.2442 41.8271C32.99 42.1743 34.7996 41.9961 36.4442 41.3149C38.0887 40.6337 39.4943 39.4802 40.4832 38.0001C41.4722 36.5201 42 34.78 42 33C41.9974 30.6138 41.0484 28.3262 39.3611 26.6389C37.6738 24.9516 35.3862 24.0026 33 24V24ZM33 40.5C31.5166 40.5 30.0666 40.0601 28.8332 39.236C27.5999 38.4119 26.6386 37.2406 26.0709 35.8701C25.5033 34.4997 25.3547 32.9917 25.6441 31.5368C25.9335 30.082 26.6478 28.7456 27.6967 27.6967C28.7456 26.6478 30.082 25.9335 31.5368 25.6441C32.9917 25.3547 34.4997 25.5032 35.8701 26.0709C37.2406 26.6386 38.4119 27.5999 39.236 28.8332C40.0601 30.0666 40.5 31.5166 40.5 33C40.4978 34.9885 39.7069 36.8948 38.3009 38.3009C36.8948 39.7069 34.9885 40.4978 33 40.5Z" fill="#A3ABB5"/>
<path d="M33.5378 27.7972C33.1052 27.7184 32.6607 27.7357 32.2356 27.8477C31.8105 27.9597 31.4152 28.1638 31.0777 28.4455C30.7402 28.7272 30.4687 29.0796 30.2825 29.4778C30.0962 29.8761 29.9998 30.3104 30 30.75C30 30.9489 30.079 31.1397 30.2197 31.2803C30.3603 31.421 30.5511 31.5 30.75 31.5C30.9489 31.5 31.1397 31.421 31.2803 31.2803C31.421 31.1397 31.5 30.9489 31.5 30.75C31.4998 30.5293 31.5483 30.3113 31.642 30.1116C31.7358 29.9118 31.8724 29.7352 32.0423 29.5943C32.2121 29.4534 32.4109 29.3517 32.6246 29.2965C32.8382 29.2412 33.0614 29.2338 33.2783 29.2747C33.5745 29.3323 33.8469 29.4768 34.0607 29.6899C34.2744 29.9029 34.4198 30.1749 34.4783 30.471C34.5373 30.7818 34.4965 31.1033 34.3618 31.3895C34.2271 31.6758 34.0054 31.9121 33.7283 32.0647C33.2694 32.3306 32.8902 32.7146 32.6302 33.1768C32.3702 33.6391 32.2389 34.1625 32.25 34.6927V35.25C32.25 35.4489 32.329 35.6397 32.4697 35.7803C32.6103 35.921 32.8011 36 33 36C33.1989 36 33.3897 35.921 33.5303 35.7803C33.671 35.6397 33.75 35.4489 33.75 35.25V34.6927C33.7406 34.4318 33.8001 34.1729 33.9226 33.9422C34.045 33.7115 34.2261 33.5172 34.4475 33.3787C34.9909 33.0803 35.4285 32.6208 35.7001 32.0635C35.9717 31.5063 36.0639 30.8785 35.9642 30.2666C35.8645 29.6548 35.5776 29.0888 35.1431 28.6466C34.7086 28.2044 34.1478 27.9077 33.5378 27.7972Z" fill="#A3ABB5"/>
<path d="M33.75 37.5C33.75 37.0858 33.4142 36.75 33 36.75C32.5858 36.75 32.25 37.0858 32.25 37.5C32.25 37.9142 32.5858 38.25 33 38.25C33.4142 38.25 33.75 37.9142 33.75 37.5Z" fill="#A3ABB5"/>
</g>
<defs>
<clipPath id="clip0">
<rect width="18" height="18" fill="white" transform="translate(24 24)"/>
</clipPath>
</defs>
</svg>
