<svg width="66" height="66" viewBox="0 0 66 66" fill="none" xmlns="http://www.w3.org/2000/svg">
<g clipPath="url(#clip0)">
<path d="M41.25 40.5H26.25C26.0511 40.5 25.8603 40.421 25.7197 40.2803C25.579 40.1397 25.5 39.9489 25.5 39.75V24.75C25.5 24.5511 25.421 24.3603 25.2803 24.2197C25.1397 24.079 24.9489 24 24.75 24C24.5511 24 24.3603 24.079 24.2197 24.2197C24.079 24.3603 24 24.5511 24 24.75V39.75C24 40.3467 24.2371 40.919 24.659 41.341C25.081 41.7629 25.6533 42 26.25 42H41.25C41.4489 42 41.6397 41.921 41.7803 41.7803C41.921 41.6397 42 41.4489 42 41.25C42 41.0511 41.921 40.8603 41.7803 40.7197C41.6397 40.579 41.4489 40.5 41.25 40.5Z" fill="#A3ABB5"/>
<path d="M35.25 39C35.4489 39 35.6397 38.921 35.7803 38.7803C35.921 38.6397 36 38.4489 36 38.25V33C36 32.8011 35.921 32.6103 35.7803 32.4697C35.6397 32.329 35.4489 32.25 35.25 32.25C35.0511 32.25 34.8603 32.329 34.7197 32.4697C34.579 32.6103 34.5 32.8011 34.5 33V38.25C34.5 38.4489 34.579 38.6397 34.7197 38.7803C34.8603 38.921 35.0511 39 35.25 39Z" fill="#A3ABB5"/>
<path d="M29.25 39C29.4489 39 29.6397 38.921 29.7803 38.7803C29.921 38.6397 30 38.4489 30 38.25V33C30 32.8011 29.921 32.6103 29.7803 32.4697C29.6397 32.329 29.4489 32.25 29.25 32.25C29.0511 32.25 28.8603 32.329 28.7197 32.4697C28.579 32.6103 28.5 32.8011 28.5 33V38.25C28.5 38.4489 28.579 38.6397 28.7197 38.7803C28.8603 38.921 29.0511 39 29.25 39Z" fill="#A3ABB5"/>
<path d="M38.25 39C38.4489 39 38.6397 38.921 38.7803 38.7803C38.921 38.6397 39 38.4489 39 38.25V29.25C39 29.0511 38.921 28.8603 38.7803 28.7197C38.6397 28.579 38.4489 28.5 38.25 28.5C38.0511 28.5 37.8603 28.579 37.7197 28.7197C37.579 28.8603 37.5 29.0511 37.5 29.25V38.25C37.5 38.4489 37.579 38.6397 37.7197 38.7803C37.8603 38.921 38.0511 39 38.25 39Z" fill="#A3ABB5"/>
<path d="M32.25 39C32.4489 39 32.6397 38.921 32.7803 38.7803C32.921 38.6397 33 38.4489 33 38.25V29.25C33 29.0511 32.921 28.8603 32.7803 28.7197C32.6397 28.579 32.4489 28.5 32.25 28.5C32.0511 28.5 31.8603 28.579 31.7197 28.7197C31.579 28.8603 31.5 29.0511 31.5 29.25V38.25C31.5 38.4489 31.579 38.6397 31.7197 38.7803C31.8603 38.921 32.0511 39 32.25 39Z" fill="#A3ABB5"/>
</g>
<defs>
<clipPath id="clip0">
<rect width="18" height="18" fill="white" transform="translate(24 24)"/>
</clipPath>
</defs>
</svg>
