<svg width="66" height="66" viewBox="0 0 66 66" fill="none" xmlns="http://www.w3.org/2000/svg">
<path d="M29.25 24H27C25.3431 24 24 25.3431 24 27V29.25C24 30.9069 25.3431 32.25 27 32.25H29.25C30.9069 32.25 32.25 30.9069 32.25 29.25V27C32.25 25.3431 30.9069 24 29.25 24Z" fill="#101B29"/>
<path d="M39 24H36.75C35.0931 24 33.75 25.3431 33.75 27V29.25C33.75 30.9069 35.0931 32.25 36.75 32.25H39C40.6569 32.25 42 30.9069 42 29.25V27C42 25.3431 40.6569 24 39 24Z" fill="#101B29"/>
<path d="M29.25 33.75H27C25.3431 33.75 24 35.0931 24 36.75V39C24 40.6569 25.3431 42 27 42H29.25C30.9069 42 32.25 40.6569 32.25 39V36.75C32.25 35.0931 30.9069 33.75 29.25 33.75Z" fill="#101B29"/>
<path d="M39 33.75H36.75C35.0931 33.75 33.75 35.0931 33.75 36.75V39C33.75 40.6569 35.0931 42 36.75 42H39C40.6569 42 42 40.6569 42 39V36.75C42 35.0931 40.6569 33.75 39 33.75Z" fill="#101B29"/>
</svg>
