<svg width="70" height="76" viewBox="0 0 70 76" fill="none" xmlns="http://www.w3.org/2000/svg">
<path d="M43.25 37.25H26.75C26.3358 37.25 26 37.5858 26 38C26 38.4142 26.3358 38.75 26.75 38.75H43.25C43.6642 38.75 44 38.4142 44 38C44 37.5858 43.6642 37.25 43.25 37.25Z" fill="#858B94"/>
<path d="M43.25 32H26.75C26.3358 32 26 32.3358 26 32.75C26 33.1642 26.3358 33.5 26.75 33.5H43.25C43.6642 33.5 44 33.1642 44 32.75C44 32.3358 43.6642 32 43.25 32Z" fill="#858B94"/>
<path d="M43.25 42.5H26.75C26.3358 42.5 26 42.8358 26 43.25C26 43.6642 26.3358 44 26.75 44H43.25C43.6642 44 44 43.6642 44 43.25C44 42.8358 43.6642 42.5 43.25 42.5Z" fill="#858B94"/>
</svg>
